P3
5 3
255
201 121 167 201 121 167 255 255 255  201 121 167 201 121 167 201 121 167  201 121 167 26 26 26 201 121 167  201 121 167 201 121 167 255 255 255  201 121 167 201 121 167 201 121 167  