P3
4 4
255
201 121 167 23 23 23 0 0 0 0 0 0  201 121 167 201 121 167 0 0 0 0 0 0  201 121 167 201 121 167 201 121 167 0 0 0  201 121 167 201 121 167 201 121 167 201 121 167  